

<svg xmlns="http://www.w3.org/2000/svg"
  viewBox="0 0 76.64 82.47"><defs>
    <linearGradient id="a" x1="0" x2="37.66" y1="66.78" y2="66.78"
      gradientUnits="userSpaceOnUse">
      <stop offset="0" stop-color="#01cbd8"/>
      <stop offset="1" stop-color="#01a0b8"/>
    </linearGradient><linearGradient id="b" x1="0" x2="37.66" y1="33.4" y2="33.4" gradientUnits="userSpaceOnUse"><stop offset="0" stop-color="#4644a4"/><stop offset="1" stop-color="#01a0b8"/></linearGradient><linearGradient id="c" x1="34.61" x2="68.22" y1="-12.4" y2="28.3" gradientUnits="userSpaceOnUse"><stop offset="0" stop-color="#1f5f94"/><stop offset=".16" stop-color="#176e9d"/><stop offset=".49" stop-color="#0b8aac"/><stop offset=".78" stop-color="#039bb6"/><stop offset="1" stop-color="#01a1ba"/></linearGradient><linearGradient id="d" x1="38.97" x2="76.64" y1="49.08" y2="49.08" gradientUnits="userSpaceOnUse"><stop offset="0" stop-color="#018caa"/><stop offset=".11" stop-color="#0585a6"/><stop offset=".67" stop-color="#176999"/><stop offset="1" stop-color="#1f5f94"/></linearGradient></defs><path d="M35.35 82.47H24.3c-.69 0-1.35-.31-1.79-.84L.53 54.86c-1.24-1.51-.17-3.78 1.79-3.78h11.05c.69 0 1.35.31 1.79.84l21.98 26.76c1.24 1.51.17 3.78-1.79 3.78Z" style="stroke-width:0;fill:url(#a)"/><path d="M35.35 17.7H24.3c-.69 0-1.35.31-1.79.84L.53 45.31c-1.24 1.51-.17 3.78 1.79 3.78h11.05c.69 0 1.35-.31 1.79-.84l21.98-26.76c1.24-1.51.17-3.78-1.79-3.78Z" style="fill:url(#b);stroke-width:0"/><path d="M41.29 0h11.05c.69 0 1.35.31 1.79.84L76.11 27.6c1.24 1.51.17 3.78-1.79 3.78H63.27c-.69 0-1.35-.31-1.79-.84L39.5 3.78C38.26 2.27 39.33 0 41.29 0Z" style="fill:url(#c);stroke-width:0"/><path d="M41.29 64.77h11.05c.69 0 1.35-.31 1.79-.84l21.98-26.76c1.24-1.51.17-3.78-1.79-3.78H63.27c-.69 0-1.35.31-1.79.84L39.5 60.99c-1.24 1.51-.17 3.78 1.79 3.78Z" style="fill:url(#d);stroke-width:0"/></svg>
