<svg xmlns="http://www.w3.org/2000/svg" width="48" height="48" fill="none"><path fill="#6F03A8" d="m6.057 12.132.234-.013h35.077l-35.31.013Zm35.311-.013.234.013.227.04-.46-.053Zm-35.31.013 35.31-.013.46.053-35.77-.04Zm-.446.104.218-.064.227-.04-.445.104Zm36.217-.064.218.064.208.087-.426-.15Zm-36.62.259.848-.299 35.772.04-36.62.259Zm0 0 .403-.195.445-.104-.847.299Zm0 0 .195-.108.208-.087-.402.195Zm36.62-.259.426.151.374.235-.8-.386Zm.426.151.195.108.179.127-.374-.235Zm-37.387.38.162-.145.18-.127-.342.272Zm.342-.272 36.619-.259 1.32 1.052-37.94-.793Zm36.619-.259.8.386.52.666-1.32-1.052Zm.8.386.162.145.142.16-.304-.305Zm-38.023.48.262-.335.342-.272-.604.606Zm0 0 .12-.175.142-.16-.262.334Zm38.023-.48.304.305.217.361-.521-.666Zm.304.305.12.174.097.187-.217-.361Zm-38.493.559.07-.198.096-.187-.166.385Zm38.71-.198.069.198.04.206-.11-.404ZM1.71 36.178l2.896-23.14.604-.607-3.5 23.747Zm0 0 2.73-22.756.166-.385-2.895 23.14Zm0 0 2.69-22.55.04-.206-2.73 22.756Zm41.44-22.954.11.404 2.703 22.818-2.813-23.222Zm-37.94-.793 37.94.793-39.69 24.95L5.21 12.43ZM1.86 37.179l-.15-1.001 3.5-23.747-3.35 24.748Zm41.4-23.55 2.689 22.549.014.268-2.704-22.818Zm-.11-.405 2.813 23.222-.282.946-2.531-24.168ZM3.46 38.174l-1.6-.995 3.35-24.748-1.75 25.742Zm39.69-24.95 2.531 24.168-42.221.781 39.69-24.949ZM1.718 36.704l-.022-.258.015-.268.007.526Zm.143.475-.143-.475-.007-.526.15 1.001Zm44.102-.733-.022.258-.055.245.077-.503Zm0 0-.077.503-.205.443.282-.946Zm-44.102.733-.087-.23-.056-.245.143.475Zm44.025-.23-.088.23-.117.213.205-.443Zm-43.763.635-.145-.192-.117-.213.262.405Zm.365.314-.365-.314-.262-.405.627.72Zm43.193-.506-.145.192-.17.17.315-.362Zm0 0-.316.362-.41.261.726-.623Zm-43.193.506-.194-.144-.171-.17.365.314Zm.972.275-.972-.275-.627-.719 1.599.994Zm42.221-.781-.726.623-41.495.158 42.221-.781Zm-.316.362-.194.144-.216.117.41-.261Zm-42.425.347-.236-.086-.216-.117.451.203Zm.52.072-.52-.072-.452-.203.972.275Zm41.495-.158-.235.086-.253.054.488-.14Zm0 0-.488.14-41.007.018 41.495-.158Zm-41.495.158-.268-.018-.253-.054.52.072Zm41.007-.018-.267.018H3.46l41.007-.018Z"/><path fill="#fff" d="M5.91 9.012 6.149 9h35.485l-35.722.012ZM41.634 9l.237.012.232.036L41.633 9Zm-35.722.012L41.633 9l.469.048L5.91 9.012Zm-.456.094.224-.058.232-.036-.456.094Zm36.647-.058.224.058.214.079-.438-.137Zm-37.063.234.872-.27 36.19.036-37.062.234Zm0 0 .416-.176.456-.094-.872.27Zm0 0 .202-.097.214-.079-.416.176Zm37.063-.234.438.137.39.212-.828-.349Zm.438.137.203.097.187.115-.39-.212Zm-37.86.343.17-.13.189-.116-.36.246Zm.359-.246 37.063-.234 1.39.954-38.453-.72Zm37.063-.234.828.35.561.604-1.39-.954Zm.828.35.172.13.152.145-.324-.276Zm-38.533.434.282-.304.36-.246-.642.55Zm0 0 .13-.159.152-.145-.282.304Zm38.533-.435.324.276.237.329-.56-.605Zm.324.276.13.159.107.17-.237-.329Zm-39.045.508.08-.18.108-.17-.188.35Zm39.282-.18.08.18.052.188-.132-.367ZM.033 32.172l4.364-22.34.642-.549-5.006 22.89Zm0 0 4.176-21.99.188-.35-4.364 22.34Zm0 0L4.158 10.37l.051-.188-4.176 21.99Zm43.458-22.17.132.368 4.158 22.078-4.29-22.446ZM5.04 9.283l38.452.72-41.693 24.23 3.24-24.95ZM.129 33.203l-.096-1.032L5.039 9.283.129 33.203ZM43.623 10.37l4.125 21.803.033.275-4.158-22.078Zm-.132-.367 4.29 22.445-.242.976-4.048-23.422ZM1.798 34.231.13 33.203l4.91-23.92-3.24 24.95Zm41.693-24.23 4.048 23.421-45.74.81L43.49 10.001ZM.006 32.712 0 32.448l.033-.276-.027.542Zm.123.491-.123-.49.027-.541.096 1.031Zm47.652-.756-.006.266-.044.253.05-.519Zm0 0-.05.519-.192.457.242-.976Zm-47.652.756-.079-.237-.044-.253.123.49Zm47.602-.237-.08.237-.112.22.192-.457Zm-47.344.656-.145-.199-.113-.22.258.419Zm.375.325-.375-.325-.258-.419.633.744Zm46.777-.524-.145.199-.173.175.318-.374Zm0 0-.319.374-.428.271.747-.645Zm-46.777.524-.201-.15-.174-.175.375.325Zm1.036.285-1.036-.285-.633-.744 1.67 1.03Zm45.74-.809-.746.645-44.994.164 45.74-.809Zm-.317.374-.202.15-.227.121.428-.27Zm-45.983.36-.25-.089-.226-.12.476.21Zm.56.075-.56-.075-.476-.21 1.036.285Zm44.994-.164-.25.09-.27.055.52-.145Zm0 0-.52.145-44.474.02 44.994-.165Zm-44.994.164-.289-.019-.27-.056.56.075Zm44.474-.019-.29.02H1.799l44.474-.02Z"/><path fill="#6F03A8" d="m28.136 23.644-4.224-6.333v-4.233l4.224 10.566Zm-4.224-6.333L13.68 27.108l10.232-14.03v4.233Zm0-4.233 10.232 14.03-6.008-3.464-4.224-10.566Zm0 4.233-4.224 6.333-6.008 3.465 10.232-9.798Zm10.232 9.797-14.456-3.464h8.448l6.008 3.465Zm0 0H13.68l6.008-3.464 14.456 3.465Z"/><path fill="#B53DF5" d="M22.967 14.846 12.24 27.056 22.967 9.96v4.886Zm4.838 6.799-4.838-6.8V9.96l4.838 11.685Zm-4.838-6.8-4.59 7.8-6.137 4.41 10.727-12.21Zm0-4.885 12.187 15.178-7.349-3.493L22.967 9.96Zm12.187 15.178L12.24 27.055l6.137-4.41 16.777 2.493Zm0 0-16.777-2.494 9.428-1 7.349 3.494Z"/></svg>