<svg xmlns="http://www.w3.org/2000/svg" width="48" height="48" fill="none"><mask id="a" width="42" height="42" x="3" y="3" maskUnits="userSpaceOnUse" style="mask-type:luminance"><path fill="#fff" d="M38 3H10a7 7 0 0 0-7 7v28a7 7 0 0 0 7 7h28a7 7 0 0 0 7-7V10a7 7 0 0 0-7-7Z"/></mask><g mask="url(#a)"><mask id="b" width="50" height="50" x="-1" y="-1" maskUnits="userSpaceOnUse" style="mask-type:luminance"><path fill="#fff" d="M38.426-.61H9.574C3.95-.61-.61 3.95-.61 9.575v28.852C-.61 44.05 3.95 48.61 9.574 48.61h28.852c5.624 0 10.183-4.559 10.183-10.183V9.574C48.61 3.95 44.05-.61 38.426-.61Z"/></mask><g mask="url(#b)"><path fill="url(#c)" d="M65.89-26.86h-35a5.25 5.25 0 0 0-5.25 5.25v35c0 2.9 2.351 5.25 5.25 5.25h35c2.9 0 5.25-2.35 5.25-5.25v-35c0-2.899-2.35-5.25-5.25-5.25Z"/><path fill="url(#d)" d="M-5.86-.61h26.25v49H-5.86v-49Z"/><path fill="url(#e)" d="M65.89 23.891h-35a5.25 5.25 0 0 0-5.25 5.25v35c0 2.9 2.351 5.25 5.25 5.25h35c2.9 0 5.25-2.35 5.25-5.25v-35c0-2.9-2.35-5.25-5.25-5.25Z"/><path fill="url(#f)" d="M65.89 23.891h-35a5.25 5.25 0 0 0-5.25 5.25v35c0 2.9 2.351 5.25 5.25 5.25h35c2.9 0 5.25-2.35 5.25-5.25v-35c0-2.9-2.35-5.25-5.25-5.25Z"/></g></g><defs><linearGradient id="c" x1="53.75" x2="30.125" y1="-4.583" y2="14.667" gradientUnits="userSpaceOnUse"><stop stop-color="#5F29FF"/><stop offset="1" stop-color="#B399FF"/></linearGradient><linearGradient id="d" x1="-25.875" x2="16.125" y1="21.931" y2="21.931" gradientUnits="userSpaceOnUse"><stop stop-color="#E6B000"/><stop offset="1" stop-color="#FFDB66"/></linearGradient><linearGradient id="e" x1="48.391" x2="20.829" y1="37.493" y2="56.871" gradientUnits="userSpaceOnUse"><stop stop-color="#855CFF"/><stop offset="1" stop-color="#AB8FFF"/></linearGradient><linearGradient id="f" x1="28.375" x2="46.75" y1="26.918" y2="45.293" gradientUnits="userSpaceOnUse"><stop stop-color="#42E6FF"/><stop offset="1" stop-color="#00BEDB"/></linearGradient></defs></svg>