<svg xmlns="http://www.w3.org/2000/svg" width="48" height="48" fill="none"><path fill="#712CF9" fill-rule="evenodd" d="M9.97 5C7.23 5 5.204 7.397 5.295 9.997c.087 2.498-.026 5.732-.84 8.37C3.638 21.013 2.256 22.69 0 22.904v2.43c2.256.215 3.638 1.89 4.455 4.536.814 2.638.927 5.873.84 8.37-.09 2.6 1.936 4.997 4.675 4.997h28.064c2.739 0 4.765-2.397 4.674-4.997-.087-2.497.026-5.732.84-8.37.818-2.646 2.196-4.322 4.452-4.537v-2.429c-2.256-.215-3.634-1.891-4.451-4.537-.815-2.637-.928-5.873-.84-8.37.09-2.6-1.936-4.997-4.675-4.997H9.969Zm22.572 23.538c0 3.58-2.67 5.75-7.1 5.75h-7.544a.814.814 0 0 1-.813-.813V14.763a.814.814 0 0 1 .813-.814h7.5c3.695 0 6.12 2.002 6.12 5.074 0 2.157-1.631 4.088-3.71 4.426v.113c2.83.31 4.734 2.27 4.734 4.976Zm-7.923-12.01h-4.301v6.075h3.622c2.8 0 4.345-1.128 4.345-3.143 0-1.889-1.328-2.932-3.666-2.932Zm-4.301 8.486v6.694h4.459c2.915 0 4.46-1.17 4.46-3.368 0-2.2-1.588-3.327-4.648-3.327h-4.271Z" clip-rule="evenodd"/></svg>