<svg xmlns="http://www.w3.org/2000/svg" width="48" height="48" fill="none"><path fill="#fff" fill-rule="evenodd" d="M6.195 0h35.862v16.735l-.208.083a48 48 0 0 1-35.654-.083V0Z" clip-rule="evenodd"/><path fill="#111" fill-rule="evenodd" d="M40.975 15.704a1.569 1.569 0 1 1 1.176 2.909 48.074 48.074 0 0 1-4.126 1.454l-1.047.303-3.138.758a48.429 48.429 0 0 1-9.774.988c-3.02 0-6-.275-8.923-.821l-.844-.168h-.128l-3.137-.79a48.079 48.079 0 0 1-5.053-1.724 1.569 1.569 0 1 1 1.176-2.909 44.89 44.89 0 0 0 16.91 3.275 44.89 44.89 0 0 0 16.908-3.275ZM13.387 13.85a2.413 2.413 0 1 0 0-4.826 2.413 2.413 0 0 0 0 4.827ZM34.745 13.85a2.413 2.413 0 1 0 0-4.826 2.413 2.413 0 0 0 0 4.827Z" clip-rule="evenodd"/><path fill="#924992" fill-rule="evenodd" d="M25.575 44.862c5.422 0 9.834-4.411 9.834-9.834v-.285H15.74v.285c0 5.423 4.412 9.834 9.835 9.834Z" clip-rule="evenodd"/><path fill="#FF6868" fill-rule="evenodd" d="M35.41 29.433H15.74v5.595c0 2.145.692 4.13 1.862 5.748h15.945a9.778 9.778 0 0 0 1.862-5.748v-5.595Z" clip-rule="evenodd"/><path fill="#FEED30" fill-rule="evenodd" d="M15.74 20.91v12.747h19.67V20.91H15.74Z" clip-rule="evenodd"/><path fill="#111" fill-rule="evenodd" d="M33.84 35.028c0 5.423-4.411 9.835-9.834 9.835s-9.835-4.412-9.835-9.835V21.103l19.67.025v13.9ZM11.034 20.337v14.691c0 7.153 5.82 12.972 12.972 12.972 7.152 0 12.972-5.82 12.972-12.972V20.37l-25.944-.033Z" clip-rule="evenodd"/></svg>