<svg xmlns="http://www.w3.org/2000/svg" width="48" height="48" fill="none"><g clip-path="url(#a)"><path fill="#fff" d="M39 0H9a9 9 0 0 0-9 9v30a9 9 0 0 0 9 9h30a9 9 0 0 0 9-9V9a9 9 0 0 0-9-9Z"/><path fill="url(#b)" d="M39.076 46.978C21.521 43.01 5.018 27.9.952 8.935-.09 4.075 4.029 0 9 0h30a9 9 0 0 1 9 9v30c0 4.97-4.075 9.074-8.924 7.978Z"/></g><defs><radialGradient id="b" cx="0" cy="0" r="1" gradientTransform="rotate(127.081 21.988 12.698) scale(51.0004)" gradientUnits="userSpaceOnUse"><stop stop-color="#00C4FF"/><stop offset="1" stop-color="#307CEF"/></radialGradient><clipPath id="a"><path fill="#fff" d="M0 0h48v48H0z"/></clipPath></defs></svg>