<svg xmlns="http://www.w3.org/2000/svg" width="48" height="48" fill="none"><path fill="#06F" d="M43.753 28.146a6.598 6.598 0 0 0-9.19 1.785c-.007.01-.014.023-.023.032-.025.037-.047.071-.068.108h-.005c-1.904 2.759-5.072 4.567-8.663 4.567-5.827 0-10.55-4.764-10.55-10.638s4.723-10.638 10.55-10.638c3.635 0 6.84 1.852 8.734 4.672.01.012.018.025.028.04a6.594 6.594 0 0 0 9.187 1.78c3.034-2.064 3.834-6.215 1.784-9.276-.014-.023-.03-.04-.044-.064C41.21 4.167 33.99 0 25.803 0 12.657 0 2 10.745 2 24s10.657 24 23.803 24c8.164 0 15.368-4.142 19.656-10.455l-.004-.004c.025-.037.055-.076.082-.122 2.047-3.058 1.248-7.209-1.784-9.273Z"/></svg>