<svg xmlns="http://www.w3.org/2000/svg" width="48" height="48" fill="none"><g clip-path="url(#a)"><path fill="url(#b)" d="M13.714 37.429c7.574 0 13.715-6.14 13.715-13.715C27.429 16.14 21.289 10 13.714 10 6.14 10 0 16.14 0 23.714 0 31.29 6.14 37.43 13.714 37.43Z"/><path fill="#fff" fill-opacity=".5" fill-rule="evenodd" d="M13.714 10H48v27.429H13.714V10Z" clip-rule="evenodd"/><path fill="url(#c)" d="M33.429 37.429c7.574 0 13.714-6.14 13.714-13.715C47.143 16.14 41.003 10 33.429 10c-7.575 0-13.715 6.14-13.715 13.714 0 7.575 6.14 13.715 13.715 13.715Z" style="mix-blend-mode:multiply"/></g><defs><linearGradient id="b" x1="1371.43" x2="1371.43" y1="2752.86" y2="690.695" gradientUnits="userSpaceOnUse"><stop stop-color="#FF7A00"/><stop offset="1" stop-color="#FD0"/></linearGradient><linearGradient id="c" x1="19.714" x2="47.143" y1="1381.43" y2="1381.43" gradientUnits="userSpaceOnUse"><stop stop-color="#2EFFCF" stop-opacity=".5"/><stop offset="1" stop-color="#4FE381"/></linearGradient><clipPath id="a"><path fill="#fff" d="M0 10h48v27.429H0z"/></clipPath></defs></svg>