<svg xmlns="http://www.w3.org/2000/svg" width="48" height="48" fill="none"><g clip-path="url(#a)"><path fill="#fff" d="M39.638 44.55c-1.041-3.6-2.654-6.45-4.575-9.14a7.245 7.245 0 0 1-5.982 2.024 7.273 7.273 0 0 1-6.31-6.271 7.018 7.018 0 0 1 0-1.829 5.5 5.5 0 0 1 .123-.684c0-.01 0-.019.01-.028.055-.225.112-.45.187-.666a7.242 7.242 0 0 1 2.128-3.206 7.22 7.22 0 0 1 5.175-1.34c.169.018.328.046.487.074 0-.018.01-.028.01-.047.009 0 .018 0 .028.01 1.21-4.34 2.512-10.022 2.193-17.531 0 .3-.009.6-.018.9a52.257 52.257 0 0 0-.319-4.51c-5.419-.056-10.397 1.65-14.381 4.538l-.113.028c-.225.178-.44.366-.656.553-.028.019-.047.038-.075.056v.01c-5.644 4.959-8.634 12.337-7.538 19.762v.028c.029.16.047.319.075.469 0 .019.01.038.01.056.028.169.056.338.094.497.009.028.009.047.018.075l.085.394c.018.066.028.131.047.197.018.093.046.178.065.272l.056.225c.02.084.047.168.066.253l.056.197c1.866 6.58 6.694 11.559 12.77 14.034.168.066.337.131.496.197 0 0 .01 0 .019.01.16.065.328.121.497.177.009 0 .018.01.028.01.16.056.328.112.487.169.01 0 .019.009.038.009.16.056.319.103.487.15.019 0 .028.01.047.01.16.046.319.093.488.14.018 0 .028.01.047.01.159.046.328.084.487.13.019 0 .028.01.047.01.16.037.328.084.497.122.019 0 .028.01.047.01l.506.112c.01 0 .019.009.037.009.178.038.357.066.525.103h.01c.91.16 1.837.272 2.775.328h.075c.16.01.319.019.478.019h.16c.13 0 .262.01.402.01H32.812c.113 0 .226 0 .338-.01.084 0 .16-.01.244-.01.103-.009.215-.009.319-.018.084-.01.168-.01.253-.019.103-.01.206-.019.309-.019.084-.009.178-.018.263-.018l.3-.029c.084-.009.178-.018.262-.028.103-.009.197-.028.3-.037.094-.01.178-.028.272-.038.103-.009.197-.028.3-.047.094-.009.178-.028.272-.046.103-.02.197-.038.3-.047.094-.019.178-.028.272-.047.103-.019.197-.038.3-.056.084-.02.178-.038.262-.057l.14-.028A21.32 21.32 0 0 0 39 44.766c.178-.066.413-.141.638-.216Z"/><path fill="#fff" d="M32.372 48h-.403c-.15 0-.29-.01-.44-.01H31.358l-.525-.028h-.084a25.702 25.702 0 0 1-3.047-.356h-.019a62.407 62.407 0 0 1-.572-.112l-.037-.01c-.188-.037-.375-.075-.553-.122l-.047-.009a11.413 11.413 0 0 1-.544-.131l-.047-.01-.534-.14-.038-.01c-.187-.056-.365-.103-.543-.159l-.038-.01a18.479 18.479 0 0 1-.534-.168l-.047-.019c-.169-.056-.347-.112-.525-.178l-.019-.01a35.89 35.89 0 0 1-.544-.196l-.028-.01c-.159-.065-.337-.13-.506-.196l-.112-.047c-6.938-2.86-12.047-8.503-14.035-15.507-.018-.046-.028-.103-.037-.15l-.019-.056c-.028-.094-.056-.187-.075-.29l-.056-.216-.01-.028c-.028-.103-.046-.197-.075-.3l-.009-.028c-.019-.066-.028-.131-.047-.197-.028-.14-.066-.281-.094-.431l-.018-.085c-.038-.187-.075-.375-.103-.553l-.01-.056c-.028-.188-.056-.356-.084-.535v-.028C6.572 19.772 9.459 11.85 15.469 6.262l.019-.084.675-.534c.224-.197.45-.385.674-.563l.366-.3.178-.047C21.871 1.575 27.187-.056 32.784 0l2.044.019.225 2.034c.14 1.256.235 2.513.29 3.769h.057c.328 7.687-.966 13.537-2.269 18.244l-.572 2.043-.028-.009-.01.047-2.09-.403a4.908 4.908 0 0 0-3.788.806 4.922 4.922 0 0 0-1.34 2.006l-.037.113c-.047.15-.094.3-.122.45l-.01.018a4.52 4.52 0 0 0-.084.47 4.631 4.631 0 0 0 0 1.246 4.964 4.964 0 0 0 4.303 4.285c1.51.187 3-.32 4.088-1.379l1.921-1.884 1.566 2.184c2.41 3.366 3.928 6.404 4.913 9.844l.628 2.166-2.147.675.028.112-2.4.525-.113.028-.037.01c-.094.019-.197.037-.29.056-.113.019-.216.047-.329.066-.093.018-.197.037-.29.056l-.328.056c-.104.019-.197.028-.3.047-.104.019-.216.028-.329.047-.093.01-.197.028-.29.037-.113.02-.225.029-.328.038l-.291.028-.328.028h-.019c-.084.01-.178.019-.262.019l-.347.028h-.028c-.085.01-.17.01-.244.019-.113.01-.216.01-.319.018h-.094c-.065 0-.13.01-.197.01-.121 0-.243.01-.365.01h-.244c-.075.018-.14.018-.206.018ZM24.3 41.85c.122.047.244.094.375.15.16.066.31.112.46.169l.018.01c.15.055.29.102.44.15l.048.018c.13.047.28.084.422.131l.028.01c.15.046.3.084.44.13l.038.01c.15.038.3.084.44.122l.038.01c.16.037.3.074.45.112l.037.01c.15.037.3.065.46.093l.047.01c.15.028.309.056.468.084h.02c.824.15 1.668.243 2.502.29h.066c.14.01.29.02.431.02h.14c.123 0 .245.009.366.009h.713c.103 0 .197 0 .3-.01.047 0 .103 0 .15-.01h.094c.084 0 .178-.009.262-.009.066 0 .131-.009.197-.009h.028c.094-.01.188-.01.281-.019.075-.01.141-.01.216-.019h.019l.272-.028.243-.028c.094-.01.178-.019.272-.037.075-.01.16-.019.244-.028.094-.01.178-.029.272-.038.084-.01.169-.028.244-.037.093-.02.178-.029.271-.047.075-.019.16-.028.244-.047.094-.019.178-.038.272-.056.019 0 .028-.01.047-.01-.572-1.434-1.284-2.822-2.184-4.265a9.565 9.565 0 0 1-5.682 1.05 9.581 9.581 0 0 1-8.315-8.27 9.414 9.414 0 0 1 0-2.409c0-.018 0-.028.01-.046l-.15-.094.543-1.669a9.542 9.542 0 0 1 2.803-4.219l.075-.065.084-.056a9.52 9.52 0 0 1 5.307-1.838l.075-.272h.009c.947-3.787 1.744-8.316 1.594-13.894h-.056a43.394 43.394 0 0 0-.113-2.193c-3.975.328-7.706 1.696-10.903 4.022l-.328.243-.038.01-.197.168-.103.094c-5.203 4.575-7.744 11.184-6.778 17.69v.02c.019.14.047.28.066.43l.01.048c.027.159.055.3.084.45l.018.075c.019.112.047.225.075.337.01.056.019.103.038.15l.01.028.055.235.01.028c.01.056.028.112.037.169.019.075.038.15.066.224l.047.17c1.594 5.643 5.747 10.209 11.39 12.515l.066.028Z"/><path fill="#00DCEC" d="M30.262 23.419c.16.018.32.047.479.075 1.368-4.903 2.859-11.56 1.856-20.719-5.663-.056-10.866 1.856-14.878 5.063-.535 2.034-.985 3.778-.985 3.778l7.632 13.818a7.112 7.112 0 0 1 5.896-2.015Z"/><path fill="#9E22FF" d="M28.988 37.144a7.112 7.112 0 0 1-2.757-13.172c-2.84-4.172-5.597-9.347-7.697-16.763l-.112.028c-6.675 5.41-9.91 14.138-7.538 22.547 3.244 11.447 15.666 17.953 27.75 14.532.225-.066.45-.141.675-.207-1.012-3.525-2.596-6.309-4.48-8.934a7.075 7.075 0 0 1-5.841 1.969Z"/><path fill="#FF0064" d="M28.988 37.153a7.112 7.112 0 0 1-6.179-7.94 7.05 7.05 0 0 1 .3-1.35c-4.265-4.276-8.306-8.879-10.247-14.016-2.662 4.762-3.534 10.415-1.978 15.937 3.113 10.997 14.691 17.42 26.307 14.888-.741-2.578-2.635-5.166-5.082-7.838a7.094 7.094 0 0 1-3.122.32Z"/><path fill="#FFC53A" d="M28.837 23.344a6.862 6.862 0 0 1 1.454.037c.159.019.318.047.478.075 1.181-4.247 2.456-9.806 2.147-17.147-.085 7.463-2.42 13.041-4.078 17.035Z"/></g><defs><clipPath id="a"><path fill="#fff" d="M0 0h48v48H0z"/></clipPath></defs></svg>