<svg xmlns="http://www.w3.org/2000/svg" width="48" height="48" fill="none"><path fill="#36F" d="M16.838 39.259a9.986 9.986 0 0 1-9.977-9.977V7.862h24.301a9.986 9.986 0 0 1 9.977 9.976v12.338H48V17.839A16.838 16.838 0 0 0 31.162 1H0v28.282A16.838 16.838 0 0 0 16.838 46.12h24.3v-6.861h-24.3Z"/><path fill="#36F" d="M31.35 16.426h-3.924v2.607h3.294v1.675h-3.294v9.469h6.861V19.372a2.946 2.946 0 0 0-2.936-2.946ZM17.628 16.426h-3.915v2.607h3.642v1.675h-3.642v9.469h6.861V19.372a2.946 2.946 0 0 0-2.946-2.946Z"/></svg>