<svg width="48" height="48" viewBox="0 0 48 48" fill="none" xmlns="http://www.w3.org/2000/svg">
<path d="M19.1546 33.2601L21.4974 42.0987L14.4781 44L12.5973 36.9043C14.3971 35.2265 16.5829 34.0117 19.1546 33.2601ZM38.8877 16.4448L41 24.4138C38.8789 26.2364 36.5675 27.4865 34.0657 28.1642C30.3131 29.1806 22.4488 27.5667 18.3453 28.6782C15.8049 29.3663 13.6305 30.4933 11.8218 32.0593L11.411 32.4285L9.29866 24.4595C11.1858 22.7003 13.4972 21.4502 16.2329 20.7092C20.3365 19.5976 28.2008 21.2116 31.9534 20.1951C34.4552 19.5175 36.7666 18.2674 38.8877 16.4448ZM35.589 4L37.7013 11.969C35.5802 13.7916 33.2688 15.0417 30.7671 15.7193C27.0144 16.7358 19.1502 15.1219 15.0466 16.2334C12.5063 16.9215 10.3318 18.0485 8.52318 19.6145L8.1123 19.9837L6 12.0147C7.88713 10.2555 10.1986 9.00539 12.9343 8.26437C17.0379 7.15285 24.9021 8.76677 28.6548 7.75031C31.1565 7.07267 33.4679 5.82257 35.589 4Z" fill="#2B3545"/>
</svg>
