<svg xmlns="http://www.w3.org/2000/svg" width="48" height="48" fill="none"><g clip-path="url(#a)"><path fill="#FBDD74" stroke="#1F1235" stroke-width="3" d="M35.5 12C41.851 12 47 17.373 47 24s-5.149 12-11.5 12S24 30.627 24 24s5.149-12 11.5-12Z"/><path fill="#67568C" stroke="#1F1235" stroke-width="3" d="M24.5 12C30.851 12 36 17.373 36 24s-5.149 12-11.5 12S13 30.627 13 24s5.149-12 11.5-12Z"/><path fill="#F25A4E" stroke="#1F1235" stroke-width="3" d="M12.5 12C18.851 12 24 17.373 24 24s-5.149 12-11.5 12S1 30.627 1 24s5.149-12 11.5-12Z"/><path fill="#1F1235" d="M6.5 25a1.5 1.5 0 1 0 0-3 1.5 1.5 0 0 0 0 3ZM19.5 25a1.5 1.5 0 1 0 0-3 1.5 1.5 0 0 0 0 3Z"/><path stroke="#1F1235" stroke-linecap="round" stroke-width="1.938" d="M15 26c-.287.464-1.12 2-2.5 2s-2.301-1.536-2.5-2"/></g><defs><clipPath id="a"><path fill="#fff" d="M0 0h48v48H0z"/></clipPath></defs></svg>