<svg width="24" height="24" viewBox="0 0 24 24" fill="none" xmlns="http://www.w3.org/2000/svg">
<g clip-path="url(#clip0_131_675)">
<path d="M0 0H24V24H0V0Z" fill="#10B981"/>
<path d="M9.27 7.8675C9.52888 7.8675 9.73875 7.65763 9.73875 7.39875C9.73875 7.13987 9.52888 6.93 9.27 6.93C9.01112 6.93 8.80125 7.13987 8.80125 7.39875C8.80125 7.65763 9.01112 7.8675 9.27 7.8675Z" fill="white" fill-opacity="0.75"/>
<path d="M12.1763 8.14875C12.4869 8.14875 12.7388 7.89691 12.7388 7.58625C12.7388 7.27559 12.4869 7.02375 12.1763 7.02375C11.8656 7.02375 11.6137 7.27559 11.6137 7.58625C11.6137 7.89691 11.8656 8.14875 12.1763 8.14875Z" fill="white" fill-opacity="0.75"/>
<path d="M14.9888 8.805C15.2476 8.805 15.4575 8.59513 15.4575 8.33625C15.4575 8.07737 15.2476 7.8675 14.9888 7.8675C14.7299 7.8675 14.52 8.07737 14.52 8.33625C14.52 8.59513 14.7299 8.805 14.9888 8.805Z" fill="white" fill-opacity="0.75"/>
<path d="M16.1701 11.0473C16.2674 10.4521 14.348 9.65025 11.9061 9.26166C9.46434 8.87278 7.38713 9.04298 7.28981 9.6382C7.27777 9.68672 7.28981 9.72314 7.30214 9.77194C7.2413 9.74752 3.70617 19.6725 3.70617 19.6725H17.0691C17.0691 19.6725 16.2431 11.1687 16.1217 11.1687C16.1458 11.1325 16.1701 11.0961 16.1701 11.0473Z" fill="url(#paint0_linear_131_675)"/>
<path d="M14.761 10.6587C14.7002 11.0353 13.3155 11.1202 11.6512 10.8651C9.999 10.5979 8.69892 10.0755 8.75977 9.71109C8.78419 9.58969 8.94202 9.49242 9.19716 9.44391C8.3468 9.48033 7.788 9.6382 7.73953 9.90539C7.66664 10.4036 9.36731 11.0838 11.5539 11.4362C13.7405 11.7883 15.5749 11.6549 15.6599 11.169C15.7087 10.8772 15.2225 10.5615 14.4209 10.2578C14.6517 10.3913 14.7731 10.537 14.761 10.6587Z" fill="#A7F3D0" fill-opacity="0.5"/>
<path d="M15.6355 7.37873C15.49 5.87231 14.3357 4.59666 12.7808 4.35389C11.2259 4.1108 9.75591 4.96111 9.13631 6.3338C10.1325 6.39464 11.2015 6.504 12.3193 6.6862C13.5098 6.86845 14.6273 7.11155 15.6355 7.37873Z" fill="url(#paint1_radial_131_675)"/>
<path d="M3.47541 7.40634C3.354 8.14734 4.89661 9.05855 7.31419 9.79955C7.30214 9.7508 7.30214 9.71433 7.30214 9.66581C7.39917 9.07059 9.46434 8.90044 11.9184 9.28931C14.3722 9.67791 16.2795 10.4797 16.1822 11.075C16.1701 11.1237 16.1581 11.1602 16.1337 11.1963C18.6483 11.2328 20.3978 10.8442 20.5192 10.1032C20.6891 8.97333 17.0205 7.45486 12.3193 6.71386C7.6058 5.97286 3.64533 6.27647 3.47541 7.40634ZM8.8935 7.3455C8.92997 7.1512 9.11217 7.00542 9.30647 7.04189C9.50076 7.07831 9.64659 7.26056 9.61012 7.45486C9.58575 7.64916 9.39145 7.78289 9.19716 7.75852C9.00286 7.72205 8.85708 7.5398 8.8935 7.3455ZM11.6997 7.5398C11.7361 7.27261 11.9913 7.09041 12.2585 7.13916C12.5257 7.17562 12.7079 7.43048 12.6594 7.69795C12.6106 7.95305 12.3557 8.1353 12.1006 8.09888C11.8332 8.06241 11.6509 7.80727 11.6997 7.5398ZM14.6517 8.2567C14.6881 8.06241 14.8703 7.91662 15.0646 7.95305C15.2589 7.98952 15.4047 8.17177 15.3683 8.36606C15.3442 8.56036 15.1496 8.70614 14.9553 8.66967C14.761 8.63325 14.6152 8.451 14.6517 8.2567Z" fill="url(#paint2_radial_131_675)"/>
</g>
<defs>
<linearGradient id="paint0_linear_131_675" x1="12.2859" y1="-3.76277" x2="12.2859" y2="22.3067" gradientUnits="userSpaceOnUse">
<stop stop-color="#86EFAC" stop-opacity="0.75"/>
<stop offset="0.635" stop-color="white" stop-opacity="0.2"/>
<stop offset="1" stop-color="white" stop-opacity="0"/>
</linearGradient>
<radialGradient id="paint1_radial_131_675" cx="0" cy="0" r="1" gradientUnits="userSpaceOnUse" gradientTransform="translate(11.9999 11.9997) rotate(90) scale(12.0001 12)">
<stop stop-color="#047857"/>
<stop offset="1" stop-color="#064E3B"/>
</radialGradient>
<radialGradient id="paint2_radial_131_675" cx="0" cy="0" r="1" gradientUnits="userSpaceOnUse" gradientTransform="translate(11.9924 8.75408) scale(65.138 65.138)">
<stop stop-color="#047857"/>
<stop offset="0.115" stop-color="#064E3B"/>
</radialGradient>
<clipPath id="clip0_131_675">
<rect width="24" height="24" fill="white"/>
</clipPath>
</defs>
</svg>
