<svg width="48" height="48" viewBox="0 0 48 48" fill="none" xmlns="http://www.w3.org/2000/svg">
<path d="M24 4.22601C13.0395 4.22601 4.22598 13.1526 4.22598 24C4.22598 34.8475 13.0395 43.774 24 43.774C34.9604 43.774 43.774 34.9605 43.774 24C43.774 13.0396 34.8474 4.22601 24 4.22601ZM34.3955 36.0904L31.4576 31.7966C31.7966 31.4576 32.0226 31.1187 32.3616 30.7797L36.8813 33.3786C36.2034 34.3955 35.2994 35.2995 34.3955 36.0904ZM8.06779 22.0791C8.29378 20.3842 8.74576 18.8023 9.42372 17.3334L13.8305 20.1582C13.6045 20.8362 13.3785 21.5141 13.2655 22.1921H8.06779V22.0791ZM13.2655 25.9209C13.2655 26.1469 13.3785 26.4859 13.4915 26.7119L8.63276 28.6328C8.40677 27.7288 8.18078 26.8249 8.06779 25.9209H13.2655ZM15.8644 16.8814L11.4576 14.0565C12.0226 13.2656 12.7006 12.5876 13.4915 11.9096L16.5424 16.0904C16.3164 16.3164 16.0904 16.6554 15.8644 16.8814ZM24 16.9944C27.8418 16.9944 31.0056 20.1582 31.0056 24C31.0056 27.8418 27.8418 31.0057 24 31.0057C20.1582 31.0057 16.9943 27.8418 16.9943 24C16.9943 20.1582 20.0452 16.9944 24 16.9944ZM34.6215 22.0791C34.5085 21.7401 34.3955 21.2882 34.2825 20.9492L39.1412 19.0283C39.4802 20.0452 39.7062 20.9492 39.8192 22.0791H34.6215ZM22.0791 34.6215V39.8192C21.0621 39.7062 20.0452 39.4802 19.1412 39.1413L21.2881 34.3955C21.5141 34.5085 21.7401 34.6215 22.0791 34.6215ZM25.8079 34.6215C26.5989 34.5085 27.5028 34.2825 28.1808 33.9435L31.1186 38.2373C29.4237 39.1413 27.6158 39.7062 25.6949 39.9322V34.6215H25.8079ZM34.1695 27.5028C34.3955 26.9379 34.5085 26.4859 34.6215 25.9209L39.8192 25.8079C39.7062 27.2769 39.2542 28.7458 38.6893 30.1017L34.1695 27.5028ZM37.4463 15.5254L32.5876 17.5593C31.9096 16.6554 31.0056 15.7514 30.1017 15.0735L32.1356 10.3277C34.2825 11.5706 36.0904 13.3786 37.4463 15.5254ZM28.6328 8.74579L26.5989 13.4915C25.6949 13.2656 24.9039 13.1526 24 13.1526C22.5311 13.1526 21.0621 13.4915 19.7062 14.0565L16.6554 9.87573C18.8023 8.74579 21.2881 8.06782 24 8.06782C25.5819 8.06782 27.1638 8.29381 28.6328 8.74579ZM10.2147 32.0226L15.0734 30.1017C15.7514 31.1187 16.6554 32.0226 17.6723 32.7006L15.6384 37.5593C13.3785 36.2034 11.5706 34.2825 10.2147 32.0226Z" fill="#20435B"/>
<path d="M24 4.79095C13.3785 4.79095 4.79095 13.3785 4.79095 24C4.79095 34.6215 13.3785 43.209 24 43.209C34.6215 43.209 43.209 34.6215 43.209 24C43.209 13.3785 34.6215 4.79095 24 4.79095ZM39.7062 18.8023C40.0452 19.9322 40.2712 20.9491 40.3842 21.9661L40.4972 22.5311H34.2825L34.1695 22.1921C34.0565 21.9661 34.0565 21.8531 33.9435 21.6271V21.5141C33.9435 21.4011 33.8305 21.1751 33.8305 21.0621L33.6045 20.4972L39.4802 18.1243L39.7062 18.8023ZM31.9096 9.53672L32.4746 9.8757C34.6215 11.1186 36.5424 13.0395 38.0113 15.2994L38.3503 15.8644L32.4746 18.3503L32.2486 18.0113C31.5706 17.1073 30.7797 16.3164 29.8757 15.6384L29.4237 15.2994L31.9096 9.53672ZM16.4294 9.42372C18.8023 8.18079 21.4011 7.50282 24 7.50282C25.6949 7.50282 27.2768 7.72881 28.7458 8.18078L29.3107 8.40677L26.9378 14.1695L26.4859 14.0565C25.5819 13.8305 24.791 13.7175 24 13.7175C22.6441 13.7175 21.2881 14.0565 19.9322 14.6215L19.4802 14.8475L15.8644 9.64971L16.4294 9.42372ZM11.0056 13.7175C11.5706 12.9265 12.2486 12.2486 13.1525 11.4576L13.6045 11.0056L17.3333 16.0904L16.9943 16.4294C16.8813 16.5424 16.7684 16.6554 16.6554 16.7684C16.5424 16.8813 16.4294 17.1073 16.3164 17.2203L15.9774 17.5593L10.6667 14.1695L11.0056 13.7175ZM7.50282 21.9661C7.72881 20.2712 8.18078 18.5763 8.85875 17.1073L9.08474 16.5424L14.3955 19.9322L14.2825 20.3842C14.1695 20.9491 13.9435 21.6271 13.8305 22.3051L13.7175 22.7571H7.50282V21.9661ZM8.06779 28.7458C7.8418 27.8418 7.61581 26.9378 7.50282 25.9209L7.38982 25.3559H13.8305V25.9209C13.8305 26.0339 13.9435 26.2599 13.9435 26.4859L14.1695 27.0508L8.18078 29.4237L8.06779 28.7458ZM15.8644 38.3503L15.2994 38.0113C13.0395 36.6554 11.1186 34.7345 9.64971 32.2486L9.31073 31.6836L15.1864 29.3107L15.4124 29.6497C16.0904 30.5537 16.8813 31.4576 17.8983 32.1356L18.2373 32.3616L15.8644 38.3503ZM22.6441 40.4972L21.9661 40.3842C20.8362 40.2712 19.8192 40.0452 18.9152 39.7062L18.3503 39.4802L20.9491 33.6045L21.5141 33.8305C21.7401 33.9435 21.8531 33.9435 22.0791 33.9435H22.6441V40.4972ZM16.4294 24C16.4294 19.7062 19.7062 16.4294 24 16.4294C28.1808 16.4294 31.5706 19.8192 31.5706 24C31.5706 28.1808 28.1808 31.5706 24 31.5706C19.8192 31.5706 16.4294 28.1808 16.4294 24ZM31.3446 38.6893C29.6497 39.5932 27.7288 40.1582 25.6949 40.4972L25.0169 40.6102V34.0565H25.6949C26.4859 33.9435 27.2768 33.7175 27.8418 33.4915L28.2938 33.2655L31.9096 38.4633L31.3446 38.6893ZM37.3333 33.7175C36.7684 34.6215 35.8644 35.5254 34.7345 36.5424L34.2825 36.9943L30.6667 31.7966L31.0056 31.4576C31.1186 31.3446 31.2316 31.1186 31.4576 31.0056C31.5706 30.7797 31.7966 30.6667 31.9096 30.4407L32.2486 30.1017L37.6723 33.2655L37.3333 33.7175ZM40.3842 25.8079C40.2712 27.1638 39.9322 28.6328 39.2542 30.3277L39.0282 30.8926L33.4915 27.7288L33.7175 27.2768C33.9435 26.7119 34.0565 26.3729 34.1695 25.8079L34.2825 25.3559L40.6102 25.2429L40.3842 25.8079Z" fill="white"/>
</svg>
