<svg xmlns="http://www.w3.org/2000/svg" width="48" height="48" fill="none">
<path fill="#38BDF8" fill-rule="evenodd" d="M24 10c-6.4 0-10.4 3.181-12 9.543 2.4-3.181 5.2-4.374 8.4-3.579 1.826.454 3.131 1.77 4.575 3.228 2.353 2.374 5.077 5.122 11.025 5.122 6.4 0 10.4-3.181 12-9.543-2.4 3.181-5.2 4.374-8.4 3.578-1.826-.453-3.131-1.77-4.575-3.227C32.672 12.746 29.949 10 24 10ZM12 24.314c-6.4 0-10.4 3.18-12 9.543 2.4-3.181 5.2-4.374 8.4-3.58 1.826.454 3.131 1.77 4.575 3.229 2.353 2.374 5.076 5.121 11.025 5.121 6.4 0 10.4-3.18 12-9.542-2.4 3.181-5.2 4.374-8.4 3.579-1.826-.454-3.131-1.771-4.575-3.228-2.353-2.374-5.077-5.122-11.025-5.122Z" clip-rule="evenodd"/></svg>